<?xml version="1.0" encoding="UTF-8" standalone="no"?>
<svg
   width="16"
   height="16"
   fill="currentColor"
   class="bi bi-list"
   viewBox="0 0 16 16"
   version="1.1"
   id="svg1"
   sodipodi:docname="burger.svg"
   inkscape:version="1.4.2 (f4327f4, 2025-05-13)"
   xmlns:inkscape="http://www.inkscape.org/namespaces/inkscape"
   xmlns:sodipodi="http://sodipodi.sourceforge.net/DTD/sodipodi-0.dtd"
   xmlns="http://www.w3.org/2000/svg"
   xmlns:svg="http://www.w3.org/2000/svg">
  <defs
     id="defs1" />
  <sodipodi:namedview
     id="namedview1"
     pagecolor="#ffffff"
     bordercolor="#000000"
     borderopacity="0.25"
     inkscape:showpageshadow="2"
     inkscape:pageopacity="0.0"
     inkscape:pagecheckerboard="0"
     inkscape:deskcolor="#d1d1d1"
     inkscape:zoom="51.574601"
     inkscape:cx="7.8139238"
     inkscape:cy="9.394159"
     inkscape:window-width="2560"
     inkscape:window-height="1369"
     inkscape:window-x="-8"
     inkscape:window-y="-8"
     inkscape:window-maximized="1"
     inkscape:current-layer="svg1" />
  <path
     fill-rule="evenodd"
     d="m 1.1718264,12.744729 a 0.62074301,0.62074301 0 0 1 0.620743,-0.620744 H 14.20743 a 0.6207435,0.6207435 0 0 1 0,1.241487 H 1.7925694 a 0.62074301,0.62074301 0 0 1 -0.620743,-0.620743 m 0,-4.9659443 A 0.62074301,0.62074301 0 0 1 1.7925694,7.1580416 H 14.20743 a 0.62074301,0.62074301 0 0 1 0,1.241486 H 1.7925694 A 0.62074301,0.62074301 0 0 1 1.1718264,7.7787847 m 0,-4.9659442 A 0.62074301,0.62074301 0 0 1 1.7925694,2.1920976 H 14.20743 a 0.62074301,0.62074301 0 0 1 0,1.241486 H 1.7925694 A 0.62074301,0.62074301 0 0 1 1.1718264,2.8128405"
     id="path1"
     style="stroke-width:1.24148;fill:#ffffff" />
</svg>
